# xmcd
#
# Track frame offsets:
#	150
#	13427
#	29999
#	49362
#	64322
#	86142
#	98263
#	102715
#	116449
#	139361
#	151561
#	167171
#	212960
#
# Disc length: 4440 seconds
#
# Revision: 1
# Processed by: cddbd v1.5.1PL0 Copyright (c) Steve Scherf et al.
# Submitted via: audiograbber 1.83.01
#
DISCID=c011560d
DTITLE=Shelby Lynne - Suit Yourself
DYEAR=2005
DGENRE=Country
TTITLE0=Go With It
TTITLE1=Where Am I Now
TTITLE2=I Cry Everyday
TTITLE3=You're The Man
TTITLE4=Old Times Sake
TTITLE5=I Won't Die Alone
TTITLE6=You And Me
TTITLE7=Johnny Met June
TTITLE8=You Don't Have A Heart
TTITLE9=Iced Tea
TTITLE10=Sleep
TTITLE11=Rainy Night in Georgia
TTITLE12=Data Track
EXTD=
EXTT0=
EXTT1=
EXTT2=
EXTT3=
EXTT4=
EXTT5=
EXTT6=
EXTT7=
EXTT8=
EXTT9=
EXTT10=
EXTT11=Just called "Track 12" on CD. FreeDB will NOT allow "Track 12" :-(\n
EXTT12=
PLAYORDER=
